<svg xmlns="http://www.w3.org/2000/svg" viewBox="0 0 256 256" role="img" aria-labelledby="title desc">
  <title id="title">SotuRail fox logo</title>
  <desc id="desc">A friendly orange fox head above two subtle rail-like context lines.</desc>
  <rect width="256" height="256" rx="40" fill="#fff7ed"/>
  <path d="M50 88 78 34l34 40h32l34-40 28 54-16 64c-8 32-34 52-62 52s-54-20-62-52L50 88Z" fill="#f97316"/>
  <path d="M78 34 96 96 50 88Z" fill="#fb923c"/>
  <path d="M178 34 160 96l46-8Z" fill="#fb923c"/>
  <path d="M82 104c16-18 76-18 92 0l-10 44c-6 24-22 38-36 38s-30-14-36-38l-10-44Z" fill="#ffedd5"/>
  <path d="M105 124c0 7-5 12-12 12s-12-5-12-12 5-12 12-12 12 5 12 12Zm70 0c0 7-5 12-12 12s-12-5-12-12 5-12 12-12 12 5 12 12Z" fill="#1f2937"/>
  <path d="M118 145h20l-10 10-10-10Z" fill="#111827"/>
  <path d="M108 166c10 8 30 8 40 0" fill="none" stroke="#7c2d12" stroke-width="6" stroke-linecap="round"/>
  <path d="M36 216h184M52 232h152" fill="none" stroke="#475569" stroke-width="8" stroke-linecap="round"/>
  <path d="M76 204v40M128 204v40M180 204v40" fill="none" stroke="#94a3b8" stroke-width="5" stroke-linecap="round"/>
  <circle cx="62" cy="216" r="4" fill="#0f766e"/>
  <circle cx="194" cy="216" r="4" fill="#0f766e"/>
</svg>
