<svg xmlns="http://www.w3.org/2000/svg" viewBox="0 0 320 220" role="img" aria-labelledby="title desc">
  <title id="title">SotuRail fox logo</title>
  <desc id="desc">A friendly minimal orange fox head with subtle circuit-like context rails underneath.</desc>
  <g fill="none" stroke-linecap="round" stroke-linejoin="round">
    <path d="M88 92 118 28l37 43h10l37-43 30 64-18 65c-9 32-32 49-54 49s-45-17-54-49L88 92Z" fill="#f97316" stroke="#7c2d12" stroke-width="8"/>
    <path d="M118 28 129 89 88 92Z" fill="#fb923c" stroke="#7c2d12" stroke-width="7"/>
    <path d="M202 28 191 89l41 3Z" fill="#fb923c" stroke="#7c2d12" stroke-width="7"/>
    <path d="M117 104c18-16 68-16 86 0l-10 41c-6 23-21 36-33 36s-27-13-33-36l-10-41Z" fill="#fff7ed" stroke="#fed7aa" stroke-width="4"/>
    <path d="M139 117c0 6-5 11-11 11s-11-5-11-11 5-11 11-11 11 5 11 11Zm64 0c0 6-5 11-11 11s-11-5-11-11 5-11 11-11 11 5 11 11Z" fill="#111827" stroke="none"/>
    <path d="M151 138h18l-9 9-9-9Z" fill="#111827" stroke="none"/>
    <path d="M143 160c11 8 23 8 34 0" stroke="#7c2d12" stroke-width="6"/>
    <path d="M76 196h168M103 210h114" stroke="#38bdf8" stroke-width="6"/>
    <path d="M116 186v31M160 184v33M204 186v31" stroke="#0f766e" stroke-width="4"/>
    <circle cx="76" cy="196" r="5" fill="#38bdf8" stroke="none"/>
    <circle cx="244" cy="196" r="5" fill="#38bdf8" stroke="none"/>
  </g>
</svg>
