<svg xmlns="http://www.w3.org/2000/svg" viewBox="0 0 128 128" role="img" aria-labelledby="title desc">
  <title id="title">SotuRail icon</title>
  <desc id="desc">Compact orange fox icon with a small context rail mark.</desc>
  <path d="M20 50 36 16l20 23h16l20-23 16 34-9 36c-6 22-22 33-35 33S35 108 29 86L20 50Z" fill="#f97316" stroke="#7c2d12" stroke-width="5" stroke-linejoin="round"/>
  <path d="M39 59c11-9 39-9 50 0l-6 22c-4 13-12 20-19 20s-15-7-19-20l-6-22Z" fill="#fff7ed"/>
  <circle cx="48" cy="67" r="5" fill="#111827"/>
  <circle cx="80" cy="67" r="5" fill="#111827"/>
  <path d="M59 79h10l-5 5-5-5Z" fill="#111827"/>
  <path d="M27 116h74M42 124h44" stroke="#38bdf8" stroke-width="4" stroke-linecap="round"/>
</svg>
